<?xml version="1.0" encoding="UTF-8"?>
<svg xmlns="http://www.w3.org/2000/svg" xmlns:xlink="http://www.w3.org/1999/xlink" width="894pt" height="1118pt" viewBox="0 0 894 1118" version="1.1">
<g id="surface1">
<path style="fill-rule:evenodd;fill:rgb(30.980392%,14.901961%,51.372549%);fill-opacity:1;stroke-width:35.455128;stroke-linecap:round;stroke-linejoin:round;stroke:rgb(30.980392%,14.901961%,51.372549%);stroke-opacity:1;stroke-miterlimit:4;" d="M 99.304688 27.578125 L 364.164062 28.773438 L 361.90625 370.898438 L 495.765625 30.867188 L 760.550781 31.832031 L 527.320312 526.75 L 782.199219 1065.058594 L 504.550781 1065.972656 L 369.105469 716.15625 L 365.652344 1066.710938 L 99.09375 1066.617188 Z M 99.304688 27.578125 "/>
<path style=" stroke:none;fill-rule:nonzero;fill:rgb(81.960784%,82.745098%,83.137255%);fill-opacity:1;" d="M 306.074219 498.273438 C 306.257812 495.050781 305.65625 490.898438 308.632812 488.738281 C 310.402344 490.199219 310.792969 492.554688 312.152344 494.292969 C 310.128906 495.628906 308.0625 496.890625 306.074219 498.273438 Z M 306.074219 498.273438 "/>
<path style=" stroke:none;fill-rule:nonzero;fill:rgb(100%,100%,100%);fill-opacity:1;" d="M 312.152344 494.292969 C 313.285156 493.59375 314.277344 492.589844 315.574219 492.195312 C 317.769531 491.875 319.675781 493.257812 321.40625 494.398438 C 329.265625 500.082031 338.164062 504.0625 346.394531 509.167969 C 346.828125 508.191406 347.902344 508.523438 348.710938 508.429688 C 349.898438 508.457031 351.183594 508.382812 352.246094 509.019531 C 355.578125 510.824219 357.597656 514.238281 360.792969 516.21875 C 367.019531 520.195312 373.832031 523.101562 380.335938 526.574219 C 382.863281 527.773438 383.976562 530.527344 386.03125 532.289062 C 388.851562 535.21875 392.75 536.691406 395.695312 539.464844 C 403.070312 545.996094 409.289062 553.691406 416.222656 560.667969 C 419.421875 563.917969 421.652344 568.261719 421.847656 572.867188 C 421.960938 575.691406 422.003906 578.914062 419.796875 581.023438 C 417.582031 584.667969 414.324219 587.472656 411.339844 590.464844 C 407.375 594.257812 403.289062 597.929688 399.167969 601.554688 C 395.660156 604.59375 392.191406 607.714844 388.304688 610.277344 C 378.878906 616.5625 368.511719 621.296875 357.949219 625.328125 C 360.855469 635.054688 364.613281 644.515625 368.910156 653.707031 C 374.550781 665.78125 380.480469 677.722656 386.644531 689.535156 C 390.375 696.5 393.78125 703.761719 399.082031 709.710938 C 404.515625 715.96875 411.0625 721.246094 416.003906 727.941406 C 420.515625 735.410156 422.960938 743.894531 425.648438 752.140625 C 428.660156 762.0625 431.289062 772.101562 433.679688 782.1875 C 434.617188 786.113281 435.296875 790.140625 436.945312 793.859375 C 438.257812 797.410156 440.367188 800.742188 440.742188 804.582031 C 438.433594 806.742188 435.6875 808.347656 433.058594 810.066406 C 427.570312 813.519531 422.011719 816.851562 416.414062 820.121094 C 416.707031 831.863281 416.789062 843.617188 416.667969 855.363281 C 416.667969 857.691406 416.460938 860.011719 416.34375 862.332031 C 415.496094 871.207031 415.28125 880.128906 414.707031 889.023438 C 413.328125 896.726562 409.914062 903.875 406.453125 910.839844 C 404.316406 915.011719 402.234375 919.230469 399.664062 923.164062 C 398.1875 925.480469 395.554688 926.558594 393.121094 927.566406 C 393.457031 931.25 393.089844 935.011719 391.792969 938.488281 C 390.773438 941.167969 389.9375 943.90625 388.96875 946.601562 C 388.210938 948.753906 386.800781 950.566406 385.6875 952.535156 C 384.902344 953.878906 385.367188 955.496094 385.503906 956.949219 C 386.484375 962.535156 385.863281 968.644531 382.765625 973.503906 C 380.542969 976.78125 381.414062 980.960938 380.542969 984.648438 C 380.125 986.980469 379.59375 989.292969 378.96875 991.578125 C 380.640625 994.691406 380.964844 998.488281 379.46875 1001.742188 C 378.839844 1002.972656 376.96875 1003.515625 377.148438 1005.121094 C 377.667969 1010.667969 377.640625 1016.316406 376.519531 1021.800781 C 375.933594 1025.148438 374.523438 1028.292969 374.078125 1031.660156 C 373.84375 1033.5625 375.152344 1035.238281 375.097656 1037.144531 C 375.207031 1043.734375 373.054688 1050.054688 372.152344 1056.527344 C 371.214844 1061.398438 370.65625 1066.410156 369.089844 1071.121094 C 364.765625 1075.535156 358.628906 1077.359375 352.835938 1078.980469 C 348.898438 1079.984375 344.824219 1081.214844 340.730469 1080.460938 C 336.921875 1079.875 332.984375 1079.289062 329.535156 1077.472656 C 327.871094 1076.660156 327.410156 1074.597656 328.171875 1073.003906 C 326.6875 1070.335938 326.933594 1067.09375 327.8125 1064.273438 C 329.101562 1060.042969 331.390625 1056.21875 333.75 1052.515625 C 334.375 1051.371094 335.679688 1050.769531 336.960938 1050.828125 L 337.144531 1050.828125 C 335.722656 1047.726562 337.867188 1044.6875 338.042969 1041.5625 C 338.730469 1034.082031 338.367188 1026.523438 337.414062 1019.085938 C 336.488281 1012.289062 335.695312 1005.40625 336.296875 998.546875 C 336.675781 990.519531 337.773438 982.558594 338.75 974.589844 C 339.265625 971.757812 339.839844 968.9375 340.074219 966.074219 C 336.363281 962.121094 333.261719 957.589844 330.90625 952.710938 C 327.84375 946.457031 326.230469 939.375 327.054688 932.410156 C 328.171875 922.316406 331.199219 912.574219 332.972656 902.601562 C 333.769531 898.816406 332.753906 894.96875 333.25 891.164062 C 333.921875 885.203125 335.398438 879.328125 335.496094 873.304688 C 335.523438 870.386719 335.941406 867.472656 336.917969 864.71875 C 339.636719 856.636719 343.796875 849.136719 348.089844 841.804688 C 347.039062 840.914062 345.84375 840.132812 345.078125 838.96875 C 344.382812 837.386719 344.273438 835.601562 343.511719 834.039062 C 343.136719 833.050781 342.476562 832.136719 342.40625 831.0625 C 343.113281 830.15625 344.039062 829.457031 344.847656 828.65625 C 344.59375 827.496094 344.195312 826.355469 344.089844 825.175781 C 344.449219 824.015625 345.316406 823.023438 345.457031 821.800781 C 343.363281 818.617188 343.394531 814.71875 341.929688 811.289062 C 341.339844 811.230469 340.746094 811.175781 340.15625 811.132812 C 337.507812 801.949219 333.367188 793.300781 330.597656 784.15625 C 326.449219 771.492188 323.605469 758.34375 317.964844 746.210938 C 316.054688 741.953125 313.179688 738.25 310.511719 734.453125 C 310.144531 735.167969 309.769531 735.886719 309.40625 736.613281 C 310.402344 737.203125 312.03125 737.425781 312.25 738.800781 C 312.6875 741.722656 310.949219 744.34375 309.753906 746.875 C 310.386719 747.40625 310.992188 747.976562 311.578125 748.574219 C 311.8125 750.433594 310.871094 752.207031 310.101562 753.847656 C 307.738281 758.328125 303.917969 761.761719 300.8125 765.699219 C 298.03125 768.867188 295.871094 772.753906 292.089844 774.886719 C 288.359375 776.996094 284.285156 778.414062 280.40625 780.222656 C 284.789062 785.679688 287.605469 792.804688 286.734375 799.863281 C 285.9375 799.832031 285.152344 799.804688 284.359375 799.769531 C 284.203125 800.507812 284.050781 801.238281 283.902344 801.984375 C 280.765625 802.222656 277.628906 802.210938 274.488281 802.175781 C 273.945312 802.625 273.410156 803.074219 272.871094 803.53125 C 269.0625 802.382812 265.1875 803.730469 261.324219 803.40625 C 260.183594 803.269531 259.378906 804.230469 258.472656 804.734375 C 256.296875 806.355469 253.449219 806.421875 251.097656 807.652344 C 249.566406 808.429688 248.304688 809.617188 246.8125 810.445312 C 245.261719 811.269531 243.507812 811.523438 241.851562 812.027344 C 240.828125 812.320312 240.191406 813.230469 239.449219 813.929688 C 238.113281 815.511719 235.746094 815.433594 233.875 815.230469 C 229.144531 814.292969 223.671875 812.964844 221.171875 808.375 C 219.484375 805.089844 218.03125 801.648438 216.875 798.152344 C 215.34375 789.035156 215.664062 779.734375 215.746094 770.523438 C 215.679688 770.117188 215.5625 769.3125 215.503906 768.90625 C 216.199219 768.949219 216.898438 768.992188 217.597656 769.046875 C 222.207031 770.71875 226.460938 774.179688 231.617188 773.710938 C 233.933594 773.527344 233.53125 770.878906 233.878906 769.257812 C 234.992188 768.285156 236.714844 768.625 238.097656 768.347656 C 240.582031 768.289062 242.203125 766.152344 244.074219 764.820312 C 247.117188 762.367188 250.8125 760.980469 254.351562 759.441406 C 255.074219 759.007812 256.246094 758.753906 256.292969 757.738281 C 256.601562 754.695312 256.308594 751.59375 256.992188 748.582031 C 257.734375 743.792969 261.21875 740.136719 262.730469 735.625 C 263.457031 733.824219 264.980469 732.566406 266.261719 731.167969 C 267.445312 729.929688 267.703125 728.164062 268.457031 726.683594 C 270.257812 725.75 272.027344 727.636719 272.703125 729.167969 C 273.777344 732.207031 273.175781 735.742188 271.289062 738.34375 C 270.117188 739.757812 270.21875 741.628906 270.175781 743.359375 C 274.917969 743.503906 279.167969 741.113281 283.210938 738.933594 C 288.234375 735.796875 293.125 732.445312 298.300781 729.5625 C 300.015625 728.644531 301.71875 727.523438 303.691406 727.300781 C 305.507812 727.625 305.8125 730.132812 307.558594 730.511719 C 304.957031 726.097656 301.648438 722.078125 299.570312 717.363281 C 298.378906 714.03125 298.058594 710.457031 296.816406 707.140625 C 295.222656 702.351562 292.5625 697.273438 287.601562 695.328125 C 282.167969 693.292969 276.085938 692.867188 271.183594 689.53125 C 273.957031 685.640625 277.664062 682.582031 281.128906 679.34375 C 288.734375 672.28125 296.777344 665.691406 303.984375 658.222656 C 310.152344 651.910156 316.128906 645.417969 322.179688 639 C 326.574219 634.363281 331.226562 629.980469 335.710938 625.433594 C 337.300781 623.714844 339.6875 622.460938 340.238281 620.019531 C 341.644531 614.1875 341.324219 608.148438 341.527344 602.203125 C 342.210938 594.570312 343.863281 587.066406 344.832031 579.464844 C 349.5 578.574219 354.488281 579.558594 358.964844 577.765625 C 360.851562 576.9375 362.730469 576.066406 364.5625 575.113281 C 366.464844 574.136719 368.015625 572.574219 370.058594 571.84375 C 369.050781 571.242188 367.332031 570.570312 368.101562 569.089844 C 368.714844 567.585938 367.910156 566.167969 367.40625 564.773438 C 367.722656 564.300781 368.019531 563.808594 368.289062 563.304688 C 364.53125 560.707031 363.488281 555.976562 361.113281 552.320312 C 359.921875 550.460938 357.121094 551.214844 355.726562 549.585938 C 354.304688 548.109375 353.417969 546.148438 351.691406 544.96875 C 349.84375 543.695312 347.878906 542.605469 346.011719 541.363281 C 345.5 540.945312 345.015625 540.507812 344.53125 540.074219 C 344.445312 537.285156 344.429688 534.492188 344.75 531.722656 C 344.835938 530.355469 345.136719 528.695312 343.929688 527.703125 C 342.394531 525.90625 339.890625 526.875 337.886719 526.828125 C 334.664062 526.800781 330.957031 527.160156 328.324219 524.933594 C 326.859375 523.703125 325.085938 522.976562 323.265625 522.460938 C 323.03125 522.820312 322.558594 523.53125 322.320312 523.886719 C 323.085938 525.535156 323.871094 527.171875 324.523438 528.871094 C 325.398438 530.683594 324.039062 532.472656 322.648438 533.496094 C 321.546875 534.082031 321.253906 532.644531 320.625 532.0625 C 319.894531 531.917969 319.0625 532.015625 318.449219 531.527344 C 316.117188 529.851562 314.019531 527.878906 311.792969 526.066406 C 310.085938 525.816406 307.78125 526.109375 306.726562 524.429688 C 305.097656 521.664062 303.9375 518.648438 302.722656 515.6875 C 302.007812 514.300781 302.691406 512.8125 302.992188 511.414062 C 300.058594 514.039062 301.292969 518.515625 299.054688 521.519531 C 298.324219 522.480469 297.011719 522.101562 295.992188 522.207031 C 294.375 519.480469 294.933594 516.1875 295.027344 513.183594 C 295.921875 509.582031 297.710938 506.230469 299.6875 503.105469 C 301.511719 501.136719 303.941406 499.871094 306.070312 498.277344 C 308.0625 496.894531 310.128906 495.628906 312.148438 494.296875 Z M 312.152344 494.292969 "/>
<path style=" stroke:none;fill-rule:nonzero;fill:rgb(81.960784%,82.745098%,83.137255%);fill-opacity:1;" d="M 323.265625 522.460938 C 325.089844 522.976562 326.863281 523.703125 328.324219 524.933594 C 330.953125 527.15625 334.664062 526.800781 337.886719 526.828125 C 339.886719 526.871094 342.394531 525.90625 343.929688 527.703125 C 345.132812 528.695312 344.835938 530.355469 344.75 531.722656 C 344.429688 534.496094 344.445312 537.289062 344.53125 540.074219 C 345.015625 540.507812 345.503906 540.949219 346.011719 541.363281 C 345.664062 541.164062 344.964844 540.765625 344.617188 540.570312 C 345.386719 553.398438 346.121094 566.296875 344.964844 579.128906 C 349.613281 578.472656 354.363281 578.796875 358.964844 577.765625 C 354.484375 579.554688 349.5 578.574219 344.832031 579.464844 C 343.867188 587.0625 342.210938 594.570312 341.527344 602.203125 C 341.320312 608.148438 341.640625 614.191406 340.238281 620.019531 C 339.683594 622.460938 337.296875 623.714844 335.710938 625.433594 C 331.226562 629.980469 326.570312 634.359375 322.179688 639 C 316.125 645.417969 310.148438 651.910156 303.984375 658.222656 C 296.777344 665.691406 288.734375 672.28125 281.128906 679.34375 C 277.664062 682.582031 273.953125 685.640625 271.183594 689.53125 C 276.085938 692.867188 282.167969 693.296875 287.601562 695.328125 C 292.5625 697.273438 295.222656 702.351562 296.816406 707.140625 C 298.058594 710.460938 298.378906 714.035156 299.570312 717.363281 C 301.648438 722.078125 304.957031 726.09375 307.558594 730.511719 C 305.8125 730.132812 305.507812 727.625 303.691406 727.300781 C 301.71875 727.523438 300.015625 728.644531 298.300781 729.5625 C 293.125 732.449219 288.234375 735.800781 283.210938 738.933594 C 279.171875 741.113281 274.917969 743.503906 270.175781 743.359375 C 270.21875 741.628906 270.117188 739.757812 271.289062 738.34375 C 273.175781 735.742188 273.777344 732.203125 272.703125 729.167969 C 272.023438 727.636719 270.257812 725.75 268.457031 726.683594 C 267.703125 728.164062 267.441406 729.933594 266.261719 731.167969 C 264.980469 732.566406 263.457031 733.824219 262.730469 735.625 C 261.21875 740.136719 257.734375 743.792969 256.992188 748.582031 C 256.308594 751.59375 256.601562 754.695312 256.292969 757.738281 C 256.246094 758.753906 255.074219 759.007812 254.351562 759.441406 C 250.808594 760.980469 247.117188 762.371094 244.074219 764.820312 C 242.203125 766.148438 240.582031 768.285156 238.097656 768.347656 C 236.714844 768.625 234.988281 768.289062 233.878906 769.257812 C 233.53125 770.878906 233.933594 773.527344 231.617188 773.710938 C 226.460938 774.175781 222.207031 770.71875 217.597656 769.046875 C 211.429688 767.84375 205.539062 765.515625 199.5625 763.589844 C 196.835938 762.761719 193.96875 762.585938 191.226562 761.847656 C 186.945312 760.789062 183.390625 757.808594 180.753906 754.375 C 178.273438 750.886719 178.734375 746.390625 179.511719 742.425781 C 174.71875 740.648438 169.78125 738.558594 166.261719 734.707031 C 164.199219 732.40625 161.375 731.039062 158.578125 729.859375 C 156.597656 728.871094 154.082031 728.421875 152.851562 726.398438 C 151.773438 724.636719 149.957031 723.554688 148.648438 722 C 147.472656 720.449219 147.367188 718.355469 146.175781 716.816406 C 145.398438 715.671875 144.246094 714.902344 143.078125 714.21875 C 142.96875 717.066406 143.640625 720.066406 145.898438 721.996094 C 144.753906 721.574219 143.46875 721.3125 142.601562 720.394531 C 141.203125 719.097656 140.726562 717.179688 140.105469 715.449219 C 138.890625 716.535156 137.351562 717.546875 137.019531 719.261719 C 136.757812 721.0625 138.257812 722.441406 139.613281 723.355469 C 143.019531 725.53125 146.984375 726.609375 150.867188 727.597656 C 145.6875 727.429688 140.074219 726.652344 135.925781 723.28125 C 133.3125 721.144531 133.152344 717.390625 134.253906 714.417969 C 132.652344 716.835938 130.988281 719.523438 131.324219 722.558594 C 131.324219 724.832031 133.238281 726.523438 135.175781 727.363281 C 138.398438 728.8125 141.992188 728.75 145.441406 729.023438 C 141.6875 729.460938 137.765625 729.527344 134.171875 728.210938 C 132.175781 727.488281 130.375 725.980469 129.722656 723.910156 C 128.929688 721.550781 129.804688 719.097656 130.046875 716.730469 C 128.660156 719.652344 127.851562 723.332031 129.699219 726.25 C 132.074219 729.960938 136.355469 731.78125 140.398438 733.058594 C 145.042969 734.464844 149.859375 735.179688 154.679688 735.644531 C 148.820312 736.003906 142.894531 735.351562 137.28125 733.636719 C 141.203125 736.265625 145.84375 737.625 150.5625 737.640625 C 145.09375 738.605469 139.152344 738.1875 134.371094 735.144531 C 127.785156 731.097656 124.320312 723.570312 122.765625 716.257812 C 123.035156 721.507812 124.117188 727.066406 127.558594 731.222656 C 123.269531 728.363281 119.488281 723.625 119.980469 718.1875 C 120.347656 712.949219 124.269531 708.929688 128.035156 705.679688 C 121.359375 699.378906 115.582031 691.671875 113.246094 682.667969 C 111.894531 677.414062 112.085938 671.75 113.933594 666.636719 C 117.492188 656.265625 124.042969 647.179688 131.570312 639.324219 C 132.492188 638.277344 132.664062 636.820312 133.300781 635.609375 C 134.863281 632.523438 138.191406 630.683594 141.539062 630.25 C 146.925781 629.480469 152.222656 631.113281 157.398438 632.398438 C 161.269531 633.492188 165.3125 634.476562 168.648438 636.828125 C 162.042969 635.28125 155.703125 631.484375 148.6875 632.335938 C 150.617188 632.667969 152.691406 632.738281 154.421875 633.773438 C 155.507812 634.414062 156.210938 635.550781 157.335938 636.136719 C 159.042969 636.710938 160.855469 636.902344 162.609375 637.308594 C 163.421875 638.15625 164.050781 639.554688 165.445312 639.34375 C 171.320312 639.316406 177.117188 638.210938 182.921875 637.414062 C 184.136719 639.296875 184.390625 641.515625 184.082031 643.695312 C 183.828125 645.5625 186.199219 646.199219 187.652344 646.175781 C 188.675781 646.371094 190.386719 645.835938 190.769531 647.195312 C 191.214844 648.628906 191.191406 650.144531 191.34375 651.625 C 192.742188 650.789062 194.203125 649.6875 195.9375 650.085938 C 196.535156 651.332031 197.164062 652.570312 197.820312 653.789062 C 199.742188 654.398438 201.730469 654.832031 203.585938 655.65625 C 205.398438 656.550781 206.171875 658.835938 205.707031 660.734375 C 204.539062 664.671875 200.109375 666.808594 199.554688 671.019531 C 198.796875 675.644531 199.179688 680.65625 201.578125 684.78125 C 203.113281 687.488281 205.652344 689.554688 208.527344 690.691406 C 210.570312 691.359375 212.742188 690.609375 214.589844 689.703125 C 227.921875 682.496094 234.5 667.535156 247.144531 659.4375 C 253.734375 655.164062 261.214844 652.585938 268.144531 648.957031 C 277.875 644.222656 286.292969 637.316406 294.53125 630.40625 C 300.488281 625.324219 306.398438 620.183594 311.917969 614.632812 C 313.414062 613.246094 314.289062 611.363281 314.832031 609.421875 C 317.753906 599.675781 320.246094 589.796875 323.28125 580.085938 C 325.839844 572.671875 327.703125 564.976562 327.949219 557.105469 C 328.058594 552.105469 329.371094 547.277344 330.433594 542.429688 C 331.148438 539.5 329.824219 536.605469 328.4375 534.09375 C 327.316406 532.234375 326.257812 530.253906 324.527344 528.882812 C 323.875 527.183594 323.089844 525.546875 322.324219 523.898438 C 322.5625 523.539062 323.035156 522.828125 323.269531 522.472656 Z M 323.265625 522.460938 "/>
<path style=" stroke:none;fill-rule:nonzero;fill:rgb(100%,100%,100%);fill-opacity:1;" d="M 213.761719 555.847656 C 217.359375 554.855469 221.214844 554.574219 224.851562 555.515625 C 229.609375 556.894531 233.46875 560.246094 236.691406 563.875 C 240.140625 567.882812 242.984375 572.410156 245.136719 577.238281 C 246.925781 581.347656 247.675781 585.792969 248.570312 590.15625 C 248.972656 591.835938 249.257812 593.742188 250.609375 594.96875 C 252.226562 596.503906 253.671875 598.25 254.644531 600.273438 C 255.910156 603.273438 256.292969 606.527344 256.78125 609.722656 C 256.980469 611.09375 257.476562 612.714844 258.917969 613.242188 C 259.65625 613.257812 260.394531 613.242188 261.136719 613.226562 C 261.40625 615.128906 261.402344 617.238281 262.621094 618.84375 C 263.300781 619.875 264.800781 620.265625 265.875 619.628906 C 266.582031 618.683594 266.980469 617.5625 267.464844 616.5 C 267.855469 616.628906 268.636719 616.886719 269.027344 617.015625 C 269.332031 616.824219 269.9375 616.453125 270.242188 616.265625 C 270.40625 613.644531 270.476562 611.019531 270.453125 608.394531 C 271.359375 608.160156 272.714844 608.535156 273.207031 607.488281 C 274.03125 606.21875 274.578125 604.804688 275.246094 603.453125 C 278.398438 600.4375 282.003906 597.921875 285.351562 595.121094 C 291.425781 590.304688 297.507812 585.476562 303.808594 580.949219 C 306.113281 579.394531 308.375 577.449219 311.246094 577.097656 C 312.9375 576.902344 314.664062 577.40625 316.058594 578.378906 C 318.097656 579.988281 320.832031 579.820312 323.277344 580.070312 C 320.238281 589.785156 317.75 599.660156 314.828125 609.40625 C 314.285156 611.347656 313.414062 613.230469 311.914062 614.617188 C 306.394531 620.164062 300.480469 625.308594 294.527344 630.390625 C 286.289062 637.300781 277.871094 644.203125 268.140625 648.941406 C 261.210938 652.570312 253.730469 655.144531 247.140625 659.421875 C 234.496094 667.519531 227.917969 682.476562 214.585938 689.6875 C 214.617188 688.15625 214.167969 686.507812 214.933594 685.097656 C 218.171875 677.949219 221.378906 670.789062 224.625 663.652344 C 225.503906 662.003906 224.523438 660.199219 224.371094 658.496094 C 223.839844 655.953125 224.695312 653.441406 224.832031 650.910156 C 224.945312 648.9375 225.09375 646.960938 225.179688 644.980469 C 220.644531 647.707031 216.3125 651.109375 211.046875 652.285156 C 208.03125 653.015625 203.945312 650.890625 204.523438 647.359375 C 202 645.910156 199.148438 645.234375 196.511719 644.054688 C 196.304688 642.660156 196.667969 641.332031 197.207031 640.0625 C 197.125 639.066406 196.589844 638.1875 196.316406 637.242188 C 194.976562 636.921875 193.636719 636.609375 192.28125 636.378906 C 191.628906 635.054688 191.015625 633.714844 190.464844 632.355469 C 188.566406 633.386719 186.277344 634.472656 184.207031 633.230469 C 182.265625 627.183594 182.335938 620.75 181.507812 614.511719 C 180.792969 614.441406 180.082031 614.359375 179.371094 614.285156 C 177.292969 608.574219 175.558594 602.742188 173.65625 596.972656 C 171.691406 596.535156 169.429688 596.316406 168.003906 594.75 C 166.707031 593.21875 167.347656 591.105469 167.429688 589.308594 C 167.671875 587.421875 167.125 585.410156 168.027344 583.640625 C 168.902344 581.585938 170.648438 580.109375 172.03125 578.410156 C 175.03125 574.539062 178.925781 571.511719 182.609375 568.320312 C 187.300781 564.503906 191.9375 560.542969 197.132812 557.417969 C 202.3125 554.976562 208.234375 555.796875 213.773438 555.839844 Z M 213.761719 555.847656 "/>
<path style=" stroke:none;fill-rule:nonzero;fill:rgb(81.960784%,82.745098%,83.137255%);fill-opacity:1;" d="M 268.917969 601.265625 C 269.890625 600.273438 270.910156 598.511719 272.5625 599.113281 C 274.109375 600.03125 274.535156 601.933594 275.246094 603.457031 C 274.578125 604.808594 274.03125 606.222656 273.207031 607.492188 C 272.714844 608.539062 271.359375 608.164062 270.453125 608.398438 C 270.476562 611.023438 270.40625 613.648438 270.242188 616.269531 C 269.9375 616.453125 269.332031 616.828125 269.027344 617.019531 C 268.636719 616.890625 267.855469 616.632812 267.464844 616.503906 C 266.980469 617.566406 266.582031 618.691406 265.875 619.632812 C 264.800781 620.265625 263.296875 619.875 262.621094 618.847656 C 261.402344 617.242188 261.40625 615.132812 261.136719 613.230469 C 260.394531 613.246094 259.65625 613.261719 258.917969 613.246094 C 257.476562 612.71875 256.980469 611.097656 256.78125 609.726562 C 256.292969 606.53125 255.90625 603.277344 254.644531 600.277344 C 255.464844 600.398438 256.28125 600.519531 257.113281 600.644531 C 257.808594 600.167969 258.496094 599.667969 259.265625 599.304688 C 260.664062 598.785156 261.929688 599.835938 263.121094 600.417969 C 264.011719 600.191406 264.894531 599.957031 265.804688 599.804688 C 266.964844 599.957031 267.925781 600.699219 268.917969 601.269531 Z M 268.917969 601.265625 "/>
<path style=" stroke:none;fill-rule:nonzero;fill:rgb(81.960784%,82.745098%,83.137255%);fill-opacity:1;" d="M 309.402344 736.605469 C 309.765625 735.878906 310.140625 735.164062 310.507812 734.445312 C 313.175781 738.242188 316.050781 741.945312 317.960938 746.203125 C 323.601562 758.335938 326.445312 771.484375 330.59375 784.148438 C 333.359375 793.292969 337.503906 801.945312 340.152344 811.125 C 340.742188 811.167969 341.335938 811.222656 341.925781 811.28125 C 343.390625 814.710938 343.359375 818.609375 345.453125 821.792969 C 345.3125 823.011719 344.445312 824.003906 344.085938 825.167969 C 344.195312 826.351562 344.589844 827.488281 344.84375 828.648438 C 344.035156 829.449219 343.109375 830.152344 342.402344 831.054688 C 342.472656 832.128906 343.132812 833.046875 343.507812 834.03125 C 344.273438 835.59375 344.382812 837.378906 345.074219 838.960938 C 345.839844 840.128906 347.03125 840.90625 348.085938 841.796875 C 343.789062 849.128906 339.628906 856.632812 336.914062 864.710938 C 335.9375 867.464844 335.519531 870.378906 335.492188 873.296875 C 335.394531 879.324219 333.917969 885.195312 333.246094 891.15625 C 332.753906 894.964844 333.765625 898.808594 332.96875 902.59375 C 331.195312 912.566406 328.167969 922.308594 327.050781 932.402344 C 326.226562 939.367188 327.835938 946.449219 330.902344 952.703125 C 320.851562 952.046875 310.785156 951.585938 300.75 950.691406 C 297.453125 950.46875 294.109375 949.640625 290.828125 950.472656 C 285.449219 951.578125 281.277344 955.375 276.546875 957.898438 C 274.367188 959.152344 271.902344 959.773438 269.605469 960.75 L 269.558594 960.75 C 263.355469 961.402344 257.328125 959.355469 251.140625 959.601562 C 244.9375 959.445312 238.742188 961.277344 232.558594 960.113281 C 227.1875 959.027344 222.492188 956.019531 218.011719 953.019531 C 212.136719 948.945312 206.617188 944.277344 202.097656 938.71875 C 198.777344 940.921875 195.519531 943.210938 192.265625 945.507812 C 188.382812 947.890625 184.574219 950.4375 180.421875 952.324219 C 172.519531 955.464844 165.296875 960.058594 158.363281 964.921875 C 155.585938 966.804688 153.171875 969.121094 150.722656 971.386719 C 143.558594 977.226562 135.8125 982.328125 127.910156 987.109375 C 114.769531 994.636719 101.589844 1002.132812 88.878906 1010.382812 C 85.316406 1012.644531 83.933594 1016.996094 80.472656 1019.375 C 78.03125 1020.949219 76.875 1023.707031 74.800781 1025.640625 C 73.222656 1027.0625 72.675781 1029.257812 71.117188 1030.691406 C 69.917969 1031.796875 68.210938 1031.835938 66.679688 1031.9375 C 64.246094 1031.976562 62.0625 1033.308594 59.628906 1033.394531 C 57.734375 1033.566406 55.890625 1032.839844 54.011719 1032.949219 C 51.511719 1033.601562 49.226562 1034.949219 47.3125 1036.664062 C 46.003906 1037.726562 44.628906 1038.996094 42.859375 1039.117188 C 41.808594 1039.199219 40.984375 1038.410156 40.109375 1037.96875 C 37.753906 1038.222656 35.414062 1039.003906 33.851562 1040.875 C 32.355469 1040.386719 30.988281 1039.1875 31.253906 1037.445312 C 32.941406 1036.277344 35.082031 1035.976562 36.722656 1034.707031 C 36.738281 1034.535156 36.765625 1034.179688 36.777344 1034.007812 C 33.636719 1030.757812 29.949219 1027.738281 28.144531 1023.484375 C 27.65625 1021.09375 27.707031 1018.476562 28.5625 1016.179688 C 29.613281 1013.726562 32.445312 1013.050781 34.800781 1012.539062 C 40.972656 1010.640625 47.535156 1011.714844 53.828125 1010.558594 C 56.886719 1009.621094 59.410156 1007.546875 62.148438 1005.96875 C 64.433594 1004.53125 67.058594 1003.757812 69.328125 1002.296875 C 75.550781 998.375 81.027344 993.347656 85.804688 987.78125 C 96.316406 976.085938 106.203125 963.78125 117.746094 953.070312 C 124.476562 947.726562 129.992188 941.007812 136.996094 935.984375 C 142.722656 931.785156 149.171875 928.683594 155.789062 926.15625 C 155.804688 925.375 155.980469 924.621094 156.734375 924.257812 C 161.457031 921.0625 166.296875 918.003906 170.652344 914.3125 C 173.523438 911.9375 175.632812 908.835938 178.078125 906.0625 C 182.164062 900.929688 186.898438 896.371094 190.988281 891.246094 C 197.300781 883.328125 202.878906 874.839844 208.226562 866.253906 C 212.257812 859.925781 215.585938 853.148438 220.136719 847.167969 C 223.726562 842.335938 227.714844 837.796875 232.074219 833.640625 C 232.851562 832.925781 233.527344 832.09375 233.898438 831.097656 C 235.851562 826.417969 237.835938 821.734375 240.140625 817.21875 C 241.183594 815.085938 242.738281 813.277344 244.402344 811.605469 C 243.761719 811.703125 242.492188 811.898438 241.859375 811.996094 C 243.519531 811.492188 245.269531 811.238281 246.820312 810.414062 C 248.3125 809.585938 249.574219 808.394531 251.105469 807.621094 C 253.460938 806.390625 256.308594 806.324219 258.480469 804.703125 C 259.386719 804.199219 260.195312 803.238281 261.332031 803.375 C 265.195312 803.699219 269.070312 802.351562 272.878906 803.5 C 273.414062 803.042969 273.953125 802.59375 274.496094 802.144531 C 277.636719 802.183594 280.777344 802.191406 283.910156 801.953125 C 284.054688 801.210938 284.207031 800.476562 284.367188 799.738281 C 285.160156 799.769531 285.945312 799.796875 286.742188 799.832031 C 287.609375 792.777344 284.796875 785.648438 280.414062 780.191406 C 284.292969 778.378906 288.367188 776.964844 292.097656 774.855469 C 295.878906 772.722656 298.035156 768.835938 300.820312 765.667969 C 303.929688 761.730469 307.746094 758.296875 310.109375 753.816406 C 310.878906 752.179688 311.816406 750.40625 311.585938 748.542969 C 311 747.945312 310.398438 747.375 309.761719 746.84375 C 310.953125 744.3125 312.695312 741.691406 312.257812 738.769531 C 312.039062 737.398438 310.414062 737.175781 309.414062 736.582031 Z M 309.402344 736.605469 "/>
<path style=" stroke:none;fill-rule:nonzero;fill:rgb(81.960784%,82.745098%,83.137255%);fill-opacity:1;" d="M 416.34375 862.335938 C 416.136719 871.648438 415.367188 880.941406 414.976562 890.246094 C 423.855469 897.730469 432.011719 906.082031 438.9375 915.421875 C 442.074219 919.472656 444.914062 923.753906 447.3125 928.285156 C 450.035156 931.511719 453.160156 934.445312 455.4375 938.039062 C 456.191406 939.152344 456.273438 940.523438 456.445312 941.820312 C 457.828125 943.425781 460.480469 945.257812 459.535156 947.660156 C 454.757812 950.871094 448.808594 952.144531 444.363281 955.910156 C 443.300781 956.609375 444.191406 957.78125 444.792969 958.460938 C 447.488281 961.769531 450.800781 965.289062 450.800781 969.835938 C 450.289062 973.480469 449 977.457031 445.9375 979.75 C 443.917969 981.28125 441.316406 979.691406 439.152344 980.472656 C 437.597656 982.304688 436.796875 984.632812 435.691406 986.742188 C 433.066406 985.734375 430.609375 984.199219 428.769531 982.0625 C 427.347656 980.457031 427.398438 977.847656 425.363281 976.753906 C 420.898438 973.867188 415.660156 972.554688 410.601562 971.117188 C 409.25 970.867188 407.808594 970.113281 406.457031 970.683594 C 397.71875 975.160156 389.246094 980.148438 380.53125 984.65625 C 381.40625 980.96875 380.53125 976.785156 382.753906 973.511719 C 385.851562 968.652344 386.476562 962.542969 385.492188 956.957031 C 385.355469 955.503906 384.890625 953.886719 385.675781 952.542969 C 386.789062 950.574219 388.199219 948.761719 388.957031 946.609375 C 389.929688 943.914062 390.761719 941.175781 391.78125 938.496094 C 393.078125 935.019531 393.445312 931.253906 393.109375 927.574219 C 395.539062 926.566406 398.175781 925.484375 399.652344 923.171875 C 402.222656 919.238281 404.304688 915.019531 406.441406 910.847656 C 409.902344 903.882812 413.320312 896.734375 414.695312 889.03125 C 415.269531 880.136719 415.488281 871.214844 416.332031 862.339844 Z M 416.34375 862.335938 "/>
<path style=" stroke:none;fill-rule:nonzero;fill:rgb(100%,100%,100%);fill-opacity:1;" d="M 192.265625 945.527344 C 195.519531 943.226562 198.78125 940.9375 202.097656 938.738281 C 206.617188 944.296875 212.136719 948.96875 218.011719 953.039062 C 222.492188 956.039062 227.1875 959.046875 232.558594 960.132812 C 238.742188 961.300781 244.9375 959.464844 251.140625 959.621094 C 257.328125 959.378906 263.355469 961.421875 269.558594 960.769531 C 267.949219 962.007812 266.300781 963.214844 264.953125 964.75 C 254.617188 976.285156 244.5 988.007812 234.292969 999.65625 C 225.453125 1009.78125 216.40625 1019.71875 207.65625 1029.925781 C 203.886719 1034.089844 200.296875 1038.480469 196.023438 1042.152344 C 195.003906 1042.980469 193.902344 1041.988281 193.078125 1041.398438 C 187.699219 1037.164062 182.644531 1032.53125 177.570312 1027.9375 C 176.019531 1031.886719 175.292969 1036.234375 173.128906 1039.90625 C 170.113281 1040.785156 166.929688 1040.578125 163.828125 1040.621094 C 159.375 1040.636719 154.933594 1040.285156 150.492188 1040.050781 C 150.371094 1037.355469 150.40625 1034.660156 150.078125 1031.984375 C 146.207031 1031.804688 142.222656 1032.402344 138.820312 1034.332031 C 134.785156 1036.617188 131.042969 1039.445312 126.699219 1041.15625 C 119.816406 1044.230469 112.113281 1044.617188 104.691406 1044.265625 C 97.867188 1043.738281 90.992188 1043.011719 84.417969 1041.058594 C 82.925781 1040.59375 83.925781 1038.890625 84.488281 1038.070312 C 84.488281 1035.253906 84.652344 1031.605469 87.578125 1030.210938 C 94.3125 1026.816406 101.410156 1024.207031 108.390625 1021.382812 C 110.109375 1020.605469 112.175781 1020.304688 113.425781 1018.769531 C 118.367188 1013.394531 123.292969 1008.007812 128.277344 1002.683594 C 130.660156 1000.035156 134.253906 999.121094 137.574219 998.269531 C 138.351562 998.117188 139.007812 997.660156 139.558594 997.121094 C 144.28125 992.445312 148.964844 987.722656 153.433594 982.796875 C 155.289062 980.671875 156.96875 978.375 159.101562 976.511719 C 163.867188 972.238281 169.28125 968.761719 174.742188 965.445312 C 176.582031 964.289062 178.722656 963.480469 180.085938 961.71875 C 184.382812 956.496094 188.3125 950.996094 192.273438 945.523438 Z M 192.265625 945.527344 "/>
<path style=" stroke:none;fill-rule:nonzero;fill:rgb(81.960784%,82.745098%,83.137255%);fill-opacity:1;" d="M 333.222656 978.164062 C 335.054688 976.960938 336.683594 975.398438 338.742188 974.59375 C 337.765625 982.5625 336.671875 990.523438 336.289062 998.550781 C 335.6875 1005.410156 336.480469 1012.292969 337.40625 1019.089844 C 338.359375 1026.527344 338.722656 1034.085938 338.035156 1041.566406 C 337.855469 1044.691406 335.714844 1047.726562 337.136719 1050.832031 L 336.953125 1050.832031 C 335.332031 1048.878906 336.742188 1046.5 337.195312 1044.414062 C 338.632812 1037.554688 338.21875 1030.480469 337.570312 1023.554688 C 337.09375 1017.96875 335.960938 1012.441406 335.933594 1006.816406 C 333.179688 1008.539062 330.796875 1010.777344 328.324219 1012.871094 C 325.503906 1015.285156 322.527344 1017.71875 320.761719 1021.066406 C 317.535156 1027.390625 314.9375 1034.296875 309.675781 1039.296875 C 308.535156 1040.609375 306.46875 1042.117188 307.480469 1044.082031 C 309.472656 1047.4375 313.664062 1048.425781 316.238281 1051.183594 C 317.574219 1052.605469 316.347656 1054.507812 316.03125 1056.097656 C 317.171875 1057.21875 317.089844 1059.082031 315.574219 1059.835938 C 311.695312 1061.773438 307.183594 1060.523438 303.292969 1059.261719 C 297.460938 1057.316406 291.382812 1054.28125 288.296875 1048.695312 C 286.554688 1045.011719 285.339844 1040.554688 287.097656 1036.648438 C 288.351562 1033.8125 289.699219 1030.992188 290.378906 1027.949219 C 291.253906 1024.300781 292.847656 1020.800781 293.171875 1017.042969 C 293.433594 1014.167969 289.863281 1010.746094 287.199219 1013.007812 C 282.53125 1016.605469 278.210938 1020.644531 273.738281 1024.484375 C 272.085938 1026.175781 270.167969 1023.433594 269.476562 1021.972656 C 273.441406 1018.664062 278.148438 1016.207031 281.570312 1012.285156 C 285.550781 1006.550781 289.007812 1000.359375 291.117188 993.679688 C 291.609375 993.804688 292.109375 993.933594 292.613281 994.070312 C 292.980469 992.296875 293.40625 990.410156 294.832031 989.167969 C 297.230469 986.980469 300.707031 987.140625 303.726562 986.867188 C 308.546875 986.800781 313.375 986.488281 318.144531 985.746094 C 323.796875 984.742188 328.570312 981.324219 333.21875 978.167969 Z M 333.222656 978.164062 "/>
</g>
</svg>
